# xmcd
#
# Track frame offsets: 
#        150
#        16832
#        37175
#        54060
#        69276
#        90688
#        105663
#        120932
#        134470
#        148585
#        164514
#        181699
#        199054
#        212903
#        227966
#        241072
#        267401
#        286300
#        303181
#        320076
#
# Disc length: 4538 seconds
#
# Revision: 0
# Processed by: cddbd v1.5.2PL0 Copyright (c) Steve Scherf et al.
# Submitted via: ExactAudioCopy v0.99pb5
#
DISCID=1811b814
DTITLE=Trace Adkins - Love and Other Stuff (The Best Of) [Special Editio
DTITLE=n]
DYEAR=2011
DGENRE=Country
TTITLE0=Ladies Love Country Boys
TTITLE1=Then They Do
TTITLE2=You're Gonna Miss This
TTITLE3=Chrome
TTITLE4=I'm Tryin'
TTITLE5=Hot Mama
TTITLE6=Songs About Me
TTITLE7=Every Light In The House
TTITLE8=I Left Something Turned On At Home
TTITLE9=There's A Girl In Texas
TTITLE10=I Wanna Feel Something
TTITLE11=Help Me Understand
TTITLE12=Marry For Money
TTITLE13=This Ain't No Love Song
TTITLE14=Happy Man
TTITLE15=Between The Rainbows And The Rain
TTITLE16=Pictures On Mantles
TTITLE17=Hillbilly Bone
TTITLE18=You're Gonna Miss This [Karaoke] (Bonus Track)
TTITLE19=Then They Do [Karaoke] (Bonus Track)
EXTD=
EXTT0=
EXTT1=
EXTT2=
EXTT3=
EXTT4=
EXTT5=
EXTT6=
EXTT7=
EXTT8=
EXTT9=
EXTT10=
EXTT11=
EXTT12=
EXTT13=
EXTT14=
EXTT15=
EXTT16=
EXTT17=
EXTT18=
EXTT19=
PLAYORDER=
